<svg width="265" height="213" viewBox="0 0 265 213" fill="none" xmlns="http://www.w3.org/2000/svg">
<path d="M131 35.3506C133.768 78.9868 220.546 169.258 263.589 208.939" stroke="#FD2B83" stroke-linecap="round"/>
<path d="M131 35.3506C133.73 78.494 221.214 169.702 263.589 208.939" stroke="#FD2B83" stroke-linecap="round"/>
<path d="M130.883 35.3537C130.527 72.7019 131.501 93.6271 132.297 102.45C132.523 104.958 133.842 107.193 135.822 108.748L263.472 208.942" stroke="#FD2B83" stroke-linecap="round"/>
<path d="M130.883 35.3537C130.527 72.7019 131.501 93.6271 132.297 102.45C132.523 104.958 133.842 107.193 135.822 108.748L263.472 208.942" stroke="#FD2B83" stroke-linecap="round"/>
<path d="M130.54 35.1168C128.533 78.7946 43.3438 170.567 0.999961 210.993" stroke="#FD2B83" stroke-linecap="round"/>
<path d="M130.54 35.1168C128.563 78.3011 42.6837 171.022 0.999961 210.993" stroke="#FD2B83" stroke-linecap="round"/>
<path d="M130.656 35.1178C131.664 72.4541 131.055 93.3931 130.414 102.229C130.231 104.74 128.952 106.998 126.998 108.587L1.11654 210.994" stroke="#FD2B83" stroke-linecap="round"/>
<path d="M130.656 35.1178C131.664 72.4541 131.055 93.3931 130.414 102.229C130.231 104.74 128.952 106.998 126.998 108.587L1.11654 210.994" stroke="#FD2B83" stroke-linecap="round"/>
<path d="M133 34L220 34" stroke="#FD2B83" stroke-linecap="round"/>
<path d="M133 19L220 19" stroke="#FD2B83" stroke-linecap="round"/>
<path d="M134 19L46.9999 19" stroke="#FD2B83" stroke-linecap="round"/>
<path d="M134 34L46.9999 34" stroke="#FD2B83" stroke-linecap="round"/>
<path d="M212.295 1.49796C221.234 4.05762 249.182 16.958 249.015 49.3862C249.01 50.467 248.113 51.3394 247.032 51.3299L236.906 51.2416C235.777 51.2317 234.884 50.2692 234.899 49.1408C235.297 19.0468 218.11 6.11996 211.756 2.32045C210.579 1.61689 210.977 1.12058 212.295 1.49796Z" stroke="#FD2B83"/>
<path d="M55.1398 50.8491C46.2008 48.2894 18.2525 35.389 18.4196 2.9608C18.4252 1.88004 19.3224 1.00767 20.4031 1.0171L30.5292 1.10547C31.6577 1.11532 32.5512 2.07786 32.5363 3.20628C32.138 33.3003 49.3249 46.2271 55.6789 50.0266C56.8554 50.7302 56.4577 51.2265 55.1398 50.8491Z" stroke="#FD2B83"/>
<path d="M131.238 126.951L128.96 127.657L126.919 135.167L124.886 142.623L119.632 145.963C113.433 149.914 111.643 151.926 110.96 155.795C110.553 158.107 110.719 158.856 111.865 160.499C112.584 161.513 113.912 162.8 114.783 163.286C115.645 163.826 116.333 164.335 116.314 164.443C116.153 165.356 111.909 173.143 108.892 178.042C103.675 186.599 103.675 186.599 108.244 180.699C110.562 177.727 113.85 172.986 115.599 170.191C117.29 167.386 118.944 165.128 119.292 165.19C121.67 165.609 128.327 168.224 129.974 169.401C132.317 171.033 133.767 174.004 133.369 176.262C132.259 182.218 118.924 190.341 105.832 193.02C100.116 194.229 88.1993 196.007 82.8482 196.504C80.8392 196.704 79.6032 196.93 80.1253 197.022C81.508 197.321 99.6756 195.37 106.213 194.251C114.672 192.75 124.74 189.925 129.428 187.759C142.191 181.863 146.679 172.014 139.497 165.593C137.122 163.457 134.394 162.31 127.857 160.714C122.412 159.366 122.296 159.346 122.591 158.013C123.124 155.668 128.541 143.267 129.369 142.637C130.564 141.629 136.508 139.462 144.124 137.314C147.966 136.218 150.939 135.301 150.765 135.271C149.779 135.097 139.729 137.481 134.903 139.069L129.315 140.91L129.871 139.456C130.925 136.871 133.742 127.337 133.605 126.758C133.604 126.425 132.512 126.51 131.238 126.951ZM121.883 151.514C120.907 154.335 120.046 156.843 119.999 157.112C119.847 157.972 118.763 157.337 118.333 156.042C117.65 154.149 118.355 151.169 119.894 149.224C121.289 147.419 123.245 145.825 123.488 146.145C123.585 146.273 122.859 148.694 121.883 151.514Z" fill="#2BFDB1" stroke="black" stroke-opacity="0.75"/>
<path d="M47 34C44.7361 29.4839 41.5667 20.1613 47 19" stroke="#FD2B83"/>
<path d="M220 19C222.264 23.5161 225.433 32.8387 220 34" stroke="#FD2B83"/>
</svg>
